<mxfile host="app.diagrams.net" modified="2020-03-17T06:31:30.056Z" agent="Mozilla/5.0 (Macintosh; Intel Mac OS X 10_13_1) AppleWebKit/537.36 (KHTML, like Gecko) Chrome/80.0.3987.132 Safari/537.36" etag="hfgL2MErgVjBEtlnIpla" version="12.8.5" type="github">
  <diagram id="68cHR_SsCPMEyt_zZivi" name="第 1 页">
    <mxGraphModel dx="2013" dy="614" grid="0" gridSize="10" guides="1" tooltips="1" connect="1" arrows="1" fold="1" page="1" pageScale="1" pageWidth="827" pageHeight="1169" math="0" shadow="0">
      <root>
        <mxCell id="0" />
        <mxCell id="1" parent="0" />
        <mxCell id="VruDHxrrpJ7KG81xUq_N-5" value="主SPD：生成/更新" style="rounded=1;whiteSpace=wrap;html=1;arcSize=40;fontColor=#000000;fillColor=#ffffc0;strokeColor=#ff0000;align=center;" vertex="1" parent="1">
          <mxGeometry x="350" y="290" width="170" height="40" as="geometry" />
        </mxCell>
        <mxCell id="VruDHxrrpJ7KG81xUq_N-6" value="" style="edgeStyle=orthogonalEdgeStyle;html=1;verticalAlign=bottom;endArrow=open;endSize=8;strokeColor=#ff0000;exitX=1;exitY=0.5;exitDx=0;exitDy=0;entryX=0;entryY=0.5;entryDx=0;entryDy=0;" edge="1" source="VruDHxrrpJ7KG81xUq_N-5" parent="1" target="VruDHxrrpJ7KG81xUq_N-11">
          <mxGeometry relative="1" as="geometry">
            <mxPoint x="560" y="395" as="targetPoint" />
            <mxPoint x="420" y="290" as="sourcePoint" />
            <Array as="points">
              <mxPoint x="560" y="310" />
              <mxPoint x="560" y="310" />
            </Array>
          </mxGeometry>
        </mxCell>
        <mxCell id="VruDHxrrpJ7KG81xUq_N-7" value="" style="ellipse;html=1;shape=startState;fillColor=#000000;strokeColor=#ff0000;align=left;" vertex="1" parent="1">
          <mxGeometry x="90" y="295" width="30" height="30" as="geometry" />
        </mxCell>
        <mxCell id="VruDHxrrpJ7KG81xUq_N-8" value="" style="edgeStyle=orthogonalEdgeStyle;html=1;verticalAlign=bottom;endArrow=open;endSize=8;strokeColor=#ff0000;entryX=0;entryY=0.5;entryDx=0;entryDy=0;" edge="1" source="VruDHxrrpJ7KG81xUq_N-7" parent="1" target="VruDHxrrpJ7KG81xUq_N-9">
          <mxGeometry relative="1" as="geometry">
            <mxPoint x="180" y="310" as="targetPoint" />
          </mxGeometry>
        </mxCell>
        <mxCell id="VruDHxrrpJ7KG81xUq_N-9" value="保存" style="rounded=1;whiteSpace=wrap;html=1;arcSize=40;fontColor=#000000;fillColor=#ffffc0;strokeColor=#ff0000;align=center;" vertex="1" parent="1">
          <mxGeometry x="180" y="290" width="120" height="40" as="geometry" />
        </mxCell>
        <mxCell id="VruDHxrrpJ7KG81xUq_N-10" value="" style="edgeStyle=orthogonalEdgeStyle;html=1;verticalAlign=bottom;endArrow=open;endSize=8;strokeColor=#ff0000;entryX=0;entryY=0.5;entryDx=0;entryDy=0;" edge="1" source="VruDHxrrpJ7KG81xUq_N-9" parent="1" target="VruDHxrrpJ7KG81xUq_N-5">
          <mxGeometry relative="1" as="geometry">
            <mxPoint x="260" y="395" as="targetPoint" />
          </mxGeometry>
        </mxCell>
        <mxCell id="VruDHxrrpJ7KG81xUq_N-11" value="场景子SPD：生成/更新/失效" style="rounded=1;whiteSpace=wrap;html=1;arcSize=40;fontColor=#000000;fillColor=#ffffc0;strokeColor=#ff0000;align=center;" vertex="1" parent="1">
          <mxGeometry x="570" y="290" width="170" height="40" as="geometry" />
        </mxCell>
        <mxCell id="VruDHxrrpJ7KG81xUq_N-13" value="&lt;div&gt;&lt;b&gt;&lt;br&gt;&lt;/b&gt;&lt;/div&gt;&lt;div&gt;&lt;b&gt;表：spd_config&lt;/b&gt;&lt;/div&gt;&lt;div&gt;&lt;span&gt;group : template&lt;/span&gt;&lt;br&gt;&lt;/div&gt;&lt;div&gt;status ：1&lt;/div&gt;&lt;div&gt;&lt;br&gt;&lt;/div&gt;&lt;div&gt;&lt;b&gt;表：spd_config_content&lt;/b&gt;&lt;/div&gt;&lt;div&gt;status: 1&lt;/div&gt;" style="text;html=1;strokeColor=#999900;fillColor=none;spacing=5;spacingTop=-20;whiteSpace=wrap;overflow=hidden;rounded=0;align=left;fontFamily=Helvetica;fontSize=11;dashed=1;" vertex="1" parent="1">
          <mxGeometry x="358" y="340" width="155" height="120" as="geometry" />
        </mxCell>
        <mxCell id="VruDHxrrpJ7KG81xUq_N-14" value="&lt;div&gt;&lt;b&gt;&lt;br&gt;&lt;/b&gt;&lt;/div&gt;&lt;div&gt;&lt;b&gt;表：spd_config&lt;/b&gt;&lt;/div&gt;&lt;div&gt;&lt;span&gt;group : globe-intention&lt;/span&gt;&lt;br&gt;&lt;/div&gt;&lt;div&gt;status ：1&lt;/div&gt;&lt;div&gt;&lt;br&gt;&lt;/div&gt;" style="text;html=1;strokeColor=#999900;fillColor=none;spacing=5;spacingTop=-20;whiteSpace=wrap;overflow=hidden;rounded=0;align=left;fontFamily=Helvetica;fontSize=11;dashed=1;" vertex="1" parent="1">
          <mxGeometry x="575" y="340" width="157" height="120" as="geometry" />
        </mxCell>
        <mxCell id="VruDHxrrpJ7KG81xUq_N-16" value="子SPD：生成/更新/删除" style="rounded=1;whiteSpace=wrap;html=1;arcSize=40;fontColor=#000000;fillColor=#ffffc0;strokeColor=#ff0000;align=center;" vertex="1" parent="1">
          <mxGeometry x="350" y="528" width="170" height="40" as="geometry" />
        </mxCell>
        <mxCell id="VruDHxrrpJ7KG81xUq_N-17" value="" style="edgeStyle=orthogonalEdgeStyle;html=1;verticalAlign=bottom;endArrow=open;endSize=8;strokeColor=#ff0000;exitX=1;exitY=0.5;exitDx=0;exitDy=0;entryX=0;entryY=0.5;entryDx=0;entryDy=0;" edge="1" parent="1" source="VruDHxrrpJ7KG81xUq_N-16" target="VruDHxrrpJ7KG81xUq_N-22">
          <mxGeometry relative="1" as="geometry">
            <mxPoint x="560" y="633" as="targetPoint" />
            <mxPoint x="420" y="528" as="sourcePoint" />
            <Array as="points">
              <mxPoint x="560" y="548" />
              <mxPoint x="560" y="548" />
            </Array>
          </mxGeometry>
        </mxCell>
        <mxCell id="VruDHxrrpJ7KG81xUq_N-18" value="" style="ellipse;html=1;shape=startState;fillColor=#000000;strokeColor=#ff0000;align=left;" vertex="1" parent="1">
          <mxGeometry x="90" y="533" width="30" height="30" as="geometry" />
        </mxCell>
        <mxCell id="VruDHxrrpJ7KG81xUq_N-19" value="" style="edgeStyle=orthogonalEdgeStyle;html=1;verticalAlign=bottom;endArrow=open;endSize=8;strokeColor=#ff0000;entryX=0;entryY=0.5;entryDx=0;entryDy=0;" edge="1" parent="1" source="VruDHxrrpJ7KG81xUq_N-18" target="VruDHxrrpJ7KG81xUq_N-20">
          <mxGeometry relative="1" as="geometry">
            <mxPoint x="180" y="548" as="targetPoint" />
          </mxGeometry>
        </mxCell>
        <mxCell id="VruDHxrrpJ7KG81xUq_N-20" value="创建子SPD" style="rounded=1;whiteSpace=wrap;html=1;arcSize=40;fontColor=#000000;fillColor=#ffffc0;strokeColor=#ff0000;align=center;" vertex="1" parent="1">
          <mxGeometry x="180" y="528" width="120" height="40" as="geometry" />
        </mxCell>
        <mxCell id="VruDHxrrpJ7KG81xUq_N-21" value="" style="edgeStyle=orthogonalEdgeStyle;html=1;verticalAlign=bottom;endArrow=open;endSize=8;strokeColor=#ff0000;entryX=0;entryY=0.5;entryDx=0;entryDy=0;" edge="1" parent="1" source="VruDHxrrpJ7KG81xUq_N-20" target="VruDHxrrpJ7KG81xUq_N-16">
          <mxGeometry relative="1" as="geometry">
            <mxPoint x="260" y="633" as="targetPoint" />
          </mxGeometry>
        </mxCell>
        <mxCell id="VruDHxrrpJ7KG81xUq_N-22" value="子SPD内容：生成/更新" style="rounded=1;whiteSpace=wrap;html=1;arcSize=40;fontColor=#000000;fillColor=#ffffc0;strokeColor=#ff0000;align=center;" vertex="1" parent="1">
          <mxGeometry x="570" y="528" width="170" height="40" as="geometry" />
        </mxCell>
        <mxCell id="VruDHxrrpJ7KG81xUq_N-23" value="&lt;div&gt;&lt;b&gt;&lt;br&gt;&lt;/b&gt;&lt;/div&gt;&lt;div&gt;&lt;b&gt;表：spd_config&lt;/b&gt;&lt;/div&gt;&lt;div&gt;&lt;span&gt;group : flow-sub&lt;/span&gt;&lt;br&gt;&lt;/div&gt;&lt;div&gt;status ：1&lt;/div&gt;&lt;div&gt;&lt;br&gt;&lt;/div&gt;&lt;div&gt;&lt;br&gt;&lt;/div&gt;" style="text;html=1;strokeColor=#999900;fillColor=none;spacing=5;spacingTop=-20;whiteSpace=wrap;overflow=hidden;rounded=0;align=left;fontFamily=Helvetica;fontSize=11;dashed=1;" vertex="1" parent="1">
          <mxGeometry x="358" y="578" width="155" height="62" as="geometry" />
        </mxCell>
        <mxCell id="VruDHxrrpJ7KG81xUq_N-24" value="&lt;div&gt;&lt;div&gt;&lt;b&gt;&lt;br&gt;&lt;/b&gt;&lt;/div&gt;&lt;div&gt;&lt;b&gt;表：spd_config_content&lt;/b&gt;&lt;/div&gt;&lt;div&gt;status: 1&lt;/div&gt;&lt;/div&gt;&lt;div&gt;&lt;br&gt;&lt;/div&gt;" style="text;html=1;strokeColor=#999900;fillColor=none;spacing=5;spacingTop=-20;whiteSpace=wrap;overflow=hidden;rounded=0;align=left;fontFamily=Helvetica;fontSize=11;dashed=1;" vertex="1" parent="1">
          <mxGeometry x="575" y="578" width="157" height="62" as="geometry" />
        </mxCell>
        <mxCell id="VruDHxrrpJ7KG81xUq_N-26" value="子SPD：删除" style="rounded=1;whiteSpace=wrap;html=1;arcSize=40;fontColor=#000000;fillColor=#ffffc0;strokeColor=#ff0000;align=center;" vertex="1" parent="1">
          <mxGeometry x="349" y="736" width="170" height="40" as="geometry" />
        </mxCell>
        <mxCell id="VruDHxrrpJ7KG81xUq_N-27" value="" style="edgeStyle=orthogonalEdgeStyle;html=1;verticalAlign=bottom;endArrow=open;endSize=8;strokeColor=#ff0000;exitX=1;exitY=0.5;exitDx=0;exitDy=0;entryX=0;entryY=0.5;entryDx=0;entryDy=0;" edge="1" parent="1" source="VruDHxrrpJ7KG81xUq_N-26" target="VruDHxrrpJ7KG81xUq_N-32">
          <mxGeometry relative="1" as="geometry">
            <mxPoint x="559" y="841" as="targetPoint" />
            <mxPoint x="419" y="736" as="sourcePoint" />
            <Array as="points">
              <mxPoint x="559" y="756" />
              <mxPoint x="559" y="756" />
            </Array>
          </mxGeometry>
        </mxCell>
        <mxCell id="VruDHxrrpJ7KG81xUq_N-28" value="" style="ellipse;html=1;shape=startState;fillColor=#000000;strokeColor=#ff0000;align=left;" vertex="1" parent="1">
          <mxGeometry x="-120" y="741" width="30" height="30" as="geometry" />
        </mxCell>
        <mxCell id="VruDHxrrpJ7KG81xUq_N-29" value="" style="edgeStyle=orthogonalEdgeStyle;html=1;verticalAlign=bottom;endArrow=open;endSize=8;strokeColor=#ff0000;entryX=0;entryY=0.5;entryDx=0;entryDy=0;" edge="1" parent="1" source="VruDHxrrpJ7KG81xUq_N-28" target="VruDHxrrpJ7KG81xUq_N-30">
          <mxGeometry relative="1" as="geometry">
            <mxPoint x="179" y="756" as="targetPoint" />
          </mxGeometry>
        </mxCell>
        <mxCell id="VruDHxrrpJ7KG81xUq_N-30" value="发布" style="rounded=1;whiteSpace=wrap;html=1;arcSize=40;fontColor=#000000;fillColor=#ffffc0;strokeColor=#ff0000;align=center;" vertex="1" parent="1">
          <mxGeometry x="-30" y="736" width="120" height="40" as="geometry" />
        </mxCell>
        <mxCell id="VruDHxrrpJ7KG81xUq_N-31" value="" style="edgeStyle=orthogonalEdgeStyle;html=1;verticalAlign=bottom;endArrow=open;endSize=8;strokeColor=#ff0000;entryX=0;entryY=0.5;entryDx=0;entryDy=0;" edge="1" parent="1" source="VruDHxrrpJ7KG81xUq_N-38" target="VruDHxrrpJ7KG81xUq_N-26">
          <mxGeometry relative="1" as="geometry">
            <mxPoint x="259" y="841" as="targetPoint" />
          </mxGeometry>
        </mxCell>
        <mxCell id="VruDHxrrpJ7KG81xUq_N-32" value="子SPD内容：归档" style="rounded=1;whiteSpace=wrap;html=1;arcSize=40;fontColor=#000000;fillColor=#ffffc0;strokeColor=#ff0000;align=center;" vertex="1" parent="1">
          <mxGeometry x="569" y="736" width="170" height="40" as="geometry" />
        </mxCell>
        <mxCell id="VruDHxrrpJ7KG81xUq_N-33" value="&lt;div&gt;&lt;b&gt;&lt;br&gt;&lt;/b&gt;&lt;/div&gt;&lt;div&gt;&lt;b&gt;表：spd_config&lt;/b&gt;&lt;/div&gt;&lt;div&gt;&lt;span&gt;group : flow-sub/globe-intention&lt;/span&gt;&lt;br&gt;&lt;/div&gt;&lt;div&gt;status ：2 -&amp;gt; 0&lt;/div&gt;&lt;div&gt;&lt;br&gt;&lt;/div&gt;&lt;div&gt;&lt;br&gt;&lt;/div&gt;" style="text;html=1;strokeColor=#999900;fillColor=none;spacing=5;spacingTop=-20;whiteSpace=wrap;overflow=hidden;rounded=0;align=left;fontFamily=Helvetica;fontSize=11;dashed=1;" vertex="1" parent="1">
          <mxGeometry x="357" y="786" width="183" height="62" as="geometry" />
        </mxCell>
        <mxCell id="VruDHxrrpJ7KG81xUq_N-34" value="&lt;div&gt;&lt;div&gt;&lt;b&gt;&lt;br&gt;&lt;/b&gt;&lt;/div&gt;&lt;div&gt;&lt;b&gt;表：spd_config_content&lt;/b&gt;&lt;/div&gt;&lt;div&gt;status: 4 -&amp;gt; 2&lt;/div&gt;&lt;/div&gt;&lt;div&gt;&lt;br&gt;&lt;/div&gt;" style="text;html=1;strokeColor=#999900;fillColor=none;spacing=5;spacingTop=-20;whiteSpace=wrap;overflow=hidden;rounded=0;align=left;fontFamily=Helvetica;fontSize=11;dashed=1;" vertex="1" parent="1">
          <mxGeometry x="574" y="786" width="157" height="62" as="geometry" />
        </mxCell>
        <mxCell id="VruDHxrrpJ7KG81xUq_N-35" value="子SPD：发布" style="rounded=1;whiteSpace=wrap;html=1;arcSize=40;fontColor=#000000;fillColor=#ffffc0;strokeColor=#ff0000;align=center;" vertex="1" parent="1">
          <mxGeometry x="790" y="736" width="170" height="40" as="geometry" />
        </mxCell>
        <mxCell id="VruDHxrrpJ7KG81xUq_N-36" value="" style="edgeStyle=orthogonalEdgeStyle;html=1;verticalAlign=bottom;endArrow=open;endSize=8;strokeColor=#ff0000;exitX=1;exitY=0.5;exitDx=0;exitDy=0;entryX=0;entryY=0.5;entryDx=0;entryDy=0;" edge="1" parent="1" source="VruDHxrrpJ7KG81xUq_N-32" target="VruDHxrrpJ7KG81xUq_N-35">
          <mxGeometry relative="1" as="geometry">
            <mxPoint x="579" y="766" as="targetPoint" />
            <mxPoint x="529" y="766" as="sourcePoint" />
            <Array as="points">
              <mxPoint x="770" y="756" />
              <mxPoint x="770" y="756" />
            </Array>
          </mxGeometry>
        </mxCell>
        <mxCell id="VruDHxrrpJ7KG81xUq_N-38" value="前置数据&lt;br&gt;&lt;font style=&quot;font-size: 10px&quot;&gt;类人/输入输出/模型&lt;/font&gt;" style="rounded=1;whiteSpace=wrap;html=1;arcSize=40;fontColor=#000000;fillColor=#ffffc0;strokeColor=#ff0000;align=center;" vertex="1" parent="1">
          <mxGeometry x="140" y="736" width="170" height="40" as="geometry" />
        </mxCell>
        <mxCell id="VruDHxrrpJ7KG81xUq_N-39" value="" style="edgeStyle=orthogonalEdgeStyle;html=1;verticalAlign=bottom;endArrow=open;endSize=8;strokeColor=#ff0000;entryX=0;entryY=0.5;entryDx=0;entryDy=0;" edge="1" parent="1" source="VruDHxrrpJ7KG81xUq_N-30" target="VruDHxrrpJ7KG81xUq_N-38">
          <mxGeometry relative="1" as="geometry">
            <mxPoint x="349" y="756" as="targetPoint" />
            <mxPoint x="150" y="756" as="sourcePoint" />
          </mxGeometry>
        </mxCell>
        <mxCell id="VruDHxrrpJ7KG81xUq_N-40" value="&lt;div&gt;&lt;b&gt;&lt;br&gt;&lt;/b&gt;&lt;/div&gt;&lt;div&gt;&lt;b&gt;表：spd_config&lt;/b&gt;&lt;/div&gt;&lt;div&gt;&lt;span&gt;group : intention&lt;/span&gt;&lt;br&gt;&lt;/div&gt;&lt;div&gt;status ：1&lt;/div&gt;&lt;div&gt;&lt;div&gt;&lt;b&gt;表：spd_config_inout_info&lt;/b&gt;&lt;/div&gt;&lt;div&gt;status : 1&lt;/div&gt;&lt;/div&gt;&lt;div&gt;&lt;div&gt;&lt;b&gt;表：spd_model_keywords&lt;/b&gt;&lt;/div&gt;&lt;div&gt;status ：1&lt;/div&gt;&lt;/div&gt;&lt;div&gt;&lt;br&gt;&lt;/div&gt;" style="text;html=1;strokeColor=#999900;fillColor=none;spacing=5;spacingTop=-20;whiteSpace=wrap;overflow=hidden;rounded=0;align=left;fontFamily=Helvetica;fontSize=11;dashed=1;" vertex="1" parent="1">
          <mxGeometry x="140" y="786" width="183" height="114" as="geometry" />
        </mxCell>
        <mxCell id="VruDHxrrpJ7KG81xUq_N-43" value="&lt;div&gt;&lt;br&gt;&lt;/div&gt;&lt;div&gt;&lt;b&gt;表：spd_config_content&lt;/b&gt;&lt;br&gt;&lt;/div&gt;&lt;div&gt;status: 1 -&amp;gt; 4&lt;/div&gt;" style="text;html=1;strokeColor=#999900;fillColor=none;spacing=5;spacingTop=-20;whiteSpace=wrap;overflow=hidden;rounded=0;align=left;fontFamily=Helvetica;fontSize=11;dashed=1;" vertex="1" parent="1">
          <mxGeometry x="797.5" y="786" width="155" height="64" as="geometry" />
        </mxCell>
        <mxCell id="VruDHxrrpJ7KG81xUq_N-44" value="话术：发布" style="rounded=1;whiteSpace=wrap;html=1;arcSize=40;fontColor=#000000;fillColor=#ffffc0;strokeColor=#ff0000;align=center;" vertex="1" parent="1">
          <mxGeometry x="797.5" y="940" width="170" height="40" as="geometry" />
        </mxCell>
        <mxCell id="VruDHxrrpJ7KG81xUq_N-45" value="" style="edgeStyle=orthogonalEdgeStyle;html=1;verticalAlign=bottom;endArrow=open;endSize=8;strokeColor=#ff0000;exitX=1;exitY=0.5;exitDx=0;exitDy=0;entryX=1;entryY=0.5;entryDx=0;entryDy=0;" edge="1" parent="1" source="VruDHxrrpJ7KG81xUq_N-35" target="VruDHxrrpJ7KG81xUq_N-44">
          <mxGeometry relative="1" as="geometry">
            <mxPoint x="800" y="765.9999999999998" as="targetPoint" />
            <mxPoint x="749" y="765.9999999999998" as="sourcePoint" />
            <Array as="points">
              <mxPoint x="1000" y="756" />
              <mxPoint x="1000" y="960" />
            </Array>
          </mxGeometry>
        </mxCell>
        <mxCell id="VruDHxrrpJ7KG81xUq_N-46" value="&lt;div&gt;&lt;br&gt;&lt;/div&gt;&lt;div&gt;&lt;b&gt;表：spd_speech_text&lt;/b&gt;&lt;br&gt;&lt;/div&gt;&lt;div&gt;status:&amp;nbsp; 4&lt;/div&gt;" style="text;html=1;strokeColor=#999900;fillColor=none;spacing=5;spacingTop=-20;whiteSpace=wrap;overflow=hidden;rounded=0;align=left;fontFamily=Helvetica;fontSize=11;dashed=1;" vertex="1" parent="1">
          <mxGeometry x="805" y="994" width="155" height="64" as="geometry" />
        </mxCell>
        <mxCell id="VruDHxrrpJ7KG81xUq_N-47" value="schema：生成" style="rounded=1;whiteSpace=wrap;html=1;arcSize=40;fontColor=#000000;fillColor=#ffffc0;strokeColor=#ff0000;align=center;" vertex="1" parent="1">
          <mxGeometry x="575" y="940" width="170" height="40" as="geometry" />
        </mxCell>
        <mxCell id="VruDHxrrpJ7KG81xUq_N-48" value="" style="edgeStyle=orthogonalEdgeStyle;html=1;verticalAlign=bottom;endArrow=open;endSize=8;strokeColor=#ff0000;exitX=0;exitY=0.5;exitDx=0;exitDy=0;entryX=1;entryY=0.5;entryDx=0;entryDy=0;" edge="1" parent="1" source="VruDHxrrpJ7KG81xUq_N-44" target="VruDHxrrpJ7KG81xUq_N-47">
          <mxGeometry relative="1" as="geometry">
            <mxPoint x="800" y="766" as="targetPoint" />
            <mxPoint x="749" y="766" as="sourcePoint" />
            <Array as="points">
              <mxPoint x="780" y="960" />
              <mxPoint x="780" y="960" />
            </Array>
          </mxGeometry>
        </mxCell>
        <mxCell id="VruDHxrrpJ7KG81xUq_N-49" value="&lt;div&gt;&lt;br&gt;&lt;/div&gt;&lt;div&gt;&lt;b&gt;表：commons_schema&lt;/b&gt;&lt;br&gt;&lt;/div&gt;&lt;div&gt;status:&amp;nbsp; 1&lt;/div&gt;" style="text;html=1;strokeColor=#999900;fillColor=none;spacing=5;spacingTop=-20;whiteSpace=wrap;overflow=hidden;rounded=0;align=left;fontFamily=Helvetica;fontSize=11;dashed=1;" vertex="1" parent="1">
          <mxGeometry x="582.5" y="994" width="155" height="64" as="geometry" />
        </mxCell>
      </root>
    </mxGraphModel>
  </diagram>
</mxfile>
